<mxfile host="app.diagrams.net" modified="2022-05-26T01:14:08.632Z" agent="5.0 (Macintosh; Intel Mac OS X 10_15_7) AppleWebKit/537.36 (KHTML, like Gecko) Chrome/101.0.4951.64 Safari/537.36" etag="8LgwQrgMFfh74s1lbCn7" version="18.1.2" type="github">
  <diagram id="IU1NwPQXqpaFm46fYrO9" name="Page-1">
    <mxGraphModel dx="705" dy="601" grid="1" gridSize="10" guides="1" tooltips="1" connect="1" arrows="1" fold="1" page="1" pageScale="1" pageWidth="850" pageHeight="1100" math="0" shadow="0">
      <root>
        <mxCell id="0" />
        <mxCell id="1" parent="0" />
        <mxCell id="DTX3Dy1GHAvhxpqoVz93-2" value="D1" style="ellipse;whiteSpace=wrap;html=1;aspect=fixed;" vertex="1" parent="1">
          <mxGeometry x="90" y="210" width="80" height="80" as="geometry" />
        </mxCell>
        <mxCell id="DTX3Dy1GHAvhxpqoVz93-5" style="edgeStyle=orthogonalEdgeStyle;rounded=0;orthogonalLoop=1;jettySize=auto;html=1;entryX=1;entryY=0.5;entryDx=0;entryDy=0;" edge="1" parent="1" source="DTX3Dy1GHAvhxpqoVz93-3" target="DTX3Dy1GHAvhxpqoVz93-2">
          <mxGeometry relative="1" as="geometry" />
        </mxCell>
        <mxCell id="DTX3Dy1GHAvhxpqoVz93-3" value="D2" style="ellipse;whiteSpace=wrap;html=1;aspect=fixed;" vertex="1" parent="1">
          <mxGeometry x="320" y="210" width="80" height="80" as="geometry" />
        </mxCell>
        <mxCell id="DTX3Dy1GHAvhxpqoVz93-7" style="edgeStyle=orthogonalEdgeStyle;rounded=0;orthogonalLoop=1;jettySize=auto;html=1;entryX=1;entryY=0.5;entryDx=0;entryDy=0;" edge="1" parent="1" source="DTX3Dy1GHAvhxpqoVz93-4" target="DTX3Dy1GHAvhxpqoVz93-3">
          <mxGeometry relative="1" as="geometry" />
        </mxCell>
        <mxCell id="DTX3Dy1GHAvhxpqoVz93-4" value="D3" style="ellipse;whiteSpace=wrap;html=1;aspect=fixed;" vertex="1" parent="1">
          <mxGeometry x="600" y="210" width="80" height="80" as="geometry" />
        </mxCell>
        <mxCell id="DTX3Dy1GHAvhxpqoVz93-11" style="rounded=0;orthogonalLoop=1;jettySize=auto;html=1;exitX=0;exitY=0;exitDx=0;exitDy=0;entryX=0.5;entryY=1;entryDx=0;entryDy=0;" edge="1" parent="1" source="DTX3Dy1GHAvhxpqoVz93-10" target="DTX3Dy1GHAvhxpqoVz93-2">
          <mxGeometry relative="1" as="geometry" />
        </mxCell>
        <mxCell id="DTX3Dy1GHAvhxpqoVz93-10" value="" style="ellipse;whiteSpace=wrap;html=1;aspect=fixed;fillColor=#3333FF;strokeColor=#6c8ebf;" vertex="1" parent="1">
          <mxGeometry x="140" y="350" width="30" height="30" as="geometry" />
        </mxCell>
        <mxCell id="DTX3Dy1GHAvhxpqoVz93-19" style="edgeStyle=none;rounded=0;orthogonalLoop=1;jettySize=auto;html=1;exitX=1;exitY=0;exitDx=0;exitDy=0;entryX=0.5;entryY=1;entryDx=0;entryDy=0;" edge="1" parent="1" source="DTX3Dy1GHAvhxpqoVz93-12" target="DTX3Dy1GHAvhxpqoVz93-3">
          <mxGeometry relative="1" as="geometry" />
        </mxCell>
        <mxCell id="DTX3Dy1GHAvhxpqoVz93-12" value="" style="ellipse;whiteSpace=wrap;html=1;aspect=fixed;fillColor=#3333FF;strokeColor=#6c8ebf;" vertex="1" parent="1">
          <mxGeometry x="320" y="320" width="30" height="30" as="geometry" />
        </mxCell>
        <mxCell id="DTX3Dy1GHAvhxpqoVz93-18" style="edgeStyle=none;rounded=0;orthogonalLoop=1;jettySize=auto;html=1;exitX=0.5;exitY=1;exitDx=0;exitDy=0;entryX=0.5;entryY=0;entryDx=0;entryDy=0;" edge="1" parent="1" source="DTX3Dy1GHAvhxpqoVz93-13" target="DTX3Dy1GHAvhxpqoVz93-3">
          <mxGeometry relative="1" as="geometry" />
        </mxCell>
        <mxCell id="DTX3Dy1GHAvhxpqoVz93-13" value="" style="ellipse;whiteSpace=wrap;html=1;aspect=fixed;fillColor=#3333FF;strokeColor=#6c8ebf;" vertex="1" parent="1">
          <mxGeometry x="330" y="120" width="30" height="30" as="geometry" />
        </mxCell>
        <mxCell id="DTX3Dy1GHAvhxpqoVz93-22" style="edgeStyle=none;rounded=0;orthogonalLoop=1;jettySize=auto;html=1;exitX=0.5;exitY=1;exitDx=0;exitDy=0;entryX=0.663;entryY=0.003;entryDx=0;entryDy=0;entryPerimeter=0;" edge="1" parent="1" source="DTX3Dy1GHAvhxpqoVz93-14" target="DTX3Dy1GHAvhxpqoVz93-4">
          <mxGeometry relative="1" as="geometry" />
        </mxCell>
        <mxCell id="DTX3Dy1GHAvhxpqoVz93-14" value="" style="ellipse;whiteSpace=wrap;html=1;aspect=fixed;fillColor=#3333FF;strokeColor=#6c8ebf;" vertex="1" parent="1">
          <mxGeometry x="650" y="120" width="30" height="30" as="geometry" />
        </mxCell>
        <mxCell id="DTX3Dy1GHAvhxpqoVz93-23" style="edgeStyle=none;rounded=0;orthogonalLoop=1;jettySize=auto;html=1;exitX=1;exitY=0;exitDx=0;exitDy=0;entryX=0.5;entryY=1;entryDx=0;entryDy=0;" edge="1" parent="1" source="DTX3Dy1GHAvhxpqoVz93-15" target="DTX3Dy1GHAvhxpqoVz93-4">
          <mxGeometry relative="1" as="geometry" />
        </mxCell>
        <mxCell id="DTX3Dy1GHAvhxpqoVz93-15" value="" style="ellipse;whiteSpace=wrap;html=1;aspect=fixed;fillColor=#3333FF;strokeColor=#6c8ebf;" vertex="1" parent="1">
          <mxGeometry x="560" y="390" width="30" height="30" as="geometry" />
        </mxCell>
        <mxCell id="DTX3Dy1GHAvhxpqoVz93-20" style="edgeStyle=none;rounded=0;orthogonalLoop=1;jettySize=auto;html=1;exitX=1;exitY=1;exitDx=0;exitDy=0;" edge="1" parent="1" source="DTX3Dy1GHAvhxpqoVz93-16" target="DTX3Dy1GHAvhxpqoVz93-4">
          <mxGeometry relative="1" as="geometry" />
        </mxCell>
        <mxCell id="DTX3Dy1GHAvhxpqoVz93-16" value="" style="ellipse;whiteSpace=wrap;html=1;aspect=fixed;fillColor=#3333FF;strokeColor=#6c8ebf;" vertex="1" parent="1">
          <mxGeometry x="530" y="140" width="30" height="30" as="geometry" />
        </mxCell>
        <mxCell id="DTX3Dy1GHAvhxpqoVz93-21" style="edgeStyle=none;rounded=0;orthogonalLoop=1;jettySize=auto;html=1;exitX=0.5;exitY=1;exitDx=0;exitDy=0;entryX=0.393;entryY=0.013;entryDx=0;entryDy=0;entryPerimeter=0;" edge="1" parent="1" source="DTX3Dy1GHAvhxpqoVz93-17" target="DTX3Dy1GHAvhxpqoVz93-4">
          <mxGeometry relative="1" as="geometry" />
        </mxCell>
        <mxCell id="DTX3Dy1GHAvhxpqoVz93-17" value="" style="ellipse;whiteSpace=wrap;html=1;aspect=fixed;fillColor=#3333FF;strokeColor=#6c8ebf;" vertex="1" parent="1">
          <mxGeometry x="580" y="60" width="30" height="30" as="geometry" />
        </mxCell>
        <mxCell id="DTX3Dy1GHAvhxpqoVz93-28" style="edgeStyle=none;rounded=0;orthogonalLoop=1;jettySize=auto;html=1;exitX=0.5;exitY=1;exitDx=0;exitDy=0;entryX=0.5;entryY=0;entryDx=0;entryDy=0;" edge="1" parent="1" source="DTX3Dy1GHAvhxpqoVz93-25" target="DTX3Dy1GHAvhxpqoVz93-2">
          <mxGeometry relative="1" as="geometry" />
        </mxCell>
        <mxCell id="DTX3Dy1GHAvhxpqoVz93-25" value="" style="ellipse;whiteSpace=wrap;html=1;aspect=fixed;fillColor=#FF4A26;" vertex="1" parent="1">
          <mxGeometry x="170" y="120" width="30" height="30" as="geometry" />
        </mxCell>
        <mxCell id="DTX3Dy1GHAvhxpqoVz93-29" style="edgeStyle=none;rounded=0;orthogonalLoop=1;jettySize=auto;html=1;exitX=0.5;exitY=1;exitDx=0;exitDy=0;" edge="1" parent="1" source="DTX3Dy1GHAvhxpqoVz93-26" target="DTX3Dy1GHAvhxpqoVz93-3">
          <mxGeometry relative="1" as="geometry" />
        </mxCell>
        <mxCell id="DTX3Dy1GHAvhxpqoVz93-26" value="" style="ellipse;whiteSpace=wrap;html=1;aspect=fixed;fillColor=#FF4A26;" vertex="1" parent="1">
          <mxGeometry x="390" y="70" width="30" height="30" as="geometry" />
        </mxCell>
        <mxCell id="DTX3Dy1GHAvhxpqoVz93-30" style="edgeStyle=none;rounded=0;orthogonalLoop=1;jettySize=auto;html=1;exitX=1;exitY=0;exitDx=0;exitDy=0;" edge="1" parent="1" source="DTX3Dy1GHAvhxpqoVz93-27" target="DTX3Dy1GHAvhxpqoVz93-4">
          <mxGeometry relative="1" as="geometry" />
        </mxCell>
        <mxCell id="DTX3Dy1GHAvhxpqoVz93-27" value="" style="ellipse;whiteSpace=wrap;html=1;aspect=fixed;fillColor=#FF4A26;" vertex="1" parent="1">
          <mxGeometry x="450" y="380" width="30" height="30" as="geometry" />
        </mxCell>
        <mxCell id="DTX3Dy1GHAvhxpqoVz93-33" value="" style="ellipse;whiteSpace=wrap;html=1;aspect=fixed;" vertex="1" parent="1">
          <mxGeometry x="30" y="420" width="80" height="80" as="geometry" />
        </mxCell>
        <mxCell id="DTX3Dy1GHAvhxpqoVz93-34" value="" style="ellipse;whiteSpace=wrap;html=1;aspect=fixed;fillColor=#3333FF;strokeColor=#6c8ebf;" vertex="1" parent="1">
          <mxGeometry x="170" y="440" width="30" height="30" as="geometry" />
        </mxCell>
        <mxCell id="DTX3Dy1GHAvhxpqoVz93-36" value="" style="ellipse;whiteSpace=wrap;html=1;aspect=fixed;fillColor=#FF4A26;" vertex="1" parent="1">
          <mxGeometry x="270" y="440" width="30" height="30" as="geometry" />
        </mxCell>
        <mxCell id="DTX3Dy1GHAvhxpqoVz93-37" value="元数据" style="text;html=1;align=center;verticalAlign=middle;resizable=0;points=[];autosize=1;strokeColor=none;fillColor=none;" vertex="1" parent="1">
          <mxGeometry x="25" y="510" width="50" height="20" as="geometry" />
        </mxCell>
        <mxCell id="DTX3Dy1GHAvhxpqoVz93-38" value="外来输入1" style="text;html=1;align=center;verticalAlign=middle;resizable=0;points=[];autosize=1;strokeColor=none;fillColor=none;" vertex="1" parent="1">
          <mxGeometry x="150" y="510" width="70" height="20" as="geometry" />
        </mxCell>
        <mxCell id="DTX3Dy1GHAvhxpqoVz93-39" value="外来输入2" style="text;html=1;align=center;verticalAlign=middle;resizable=0;points=[];autosize=1;strokeColor=none;fillColor=none;" vertex="1" parent="1">
          <mxGeometry x="250" y="510" width="70" height="20" as="geometry" />
        </mxCell>
      </root>
    </mxGraphModel>
  </diagram>
</mxfile>
